<svg xmlns="http://www.w3.org/2000/svg" viewBox="0 0 500 500"><g id="freepik--Wall--inject-70"><g id="freepik--wall--inject-70"><path d="M114.9,68.5v9.32c0,2.93-2.07,4.13-4.61,2.66L67.66,55.86a10.17,10.17,0,0,1-4.61-8V38.57c0-2.94,2.06-4.13,4.61-2.66l42.63,24.61A10.2,10.2,0,0,1,114.9,68.5Z" style="fill:#f0f0f0"></path><path d="M128.07,250.27v9.32c0,2.94-2.06,4.13-4.61,2.66L80.83,237.64a10.2,10.2,0,0,1-4.61-8v-9.32c0-2.94,2.07-4.13,4.61-2.66l42.63,24.62A10.15,10.15,0,0,1,128.07,250.27Z" style="fill:#f0f0f0"></path><path d="M212.08,228.16v9.32c0,2.93-2.06,4.12-4.61,2.66l-42.63-24.62a10.17,10.17,0,0,1-4.61-8v-9.32c0-2.93,2.06-4.12,4.61-2.65l42.63,24.61A10.17,10.17,0,0,1,212.08,228.16Z" style="fill:#e0e0e0"></path><path d="M130,155.47v9.32c0,2.93-2.06,4.13-4.6,2.66L82.78,142.83a10.18,10.18,0,0,1-4.6-8v-9.32c0-2.94,2.06-4.13,4.6-2.66l42.64,24.61A10.19,10.19,0,0,1,130,155.47Z" style="fill:#e0e0e0"></path><path d="M154,293.68V303c0,2.94-2.06,4.13-4.61,2.66L106.75,281a10.18,10.18,0,0,1-4.6-8v-9.32c0-2.94,2.06-4.13,4.6-2.66l42.63,24.61A10.17,10.17,0,0,1,154,293.68Z" style="fill:#e0e0e0"></path><path d="M53.9,79.73l42.63,24.62a10.15,10.15,0,0,1,4.61,8v9.32c0,2.94-2.06,4.13-4.61,2.66L53.9,99.69a10.19,10.19,0,0,1-4.6-8V82.39C49.3,79.45,51.36,78.26,53.9,79.73Z" style="fill:#f0f0f0"></path><path d="M110.38,112.34,153,137a10.19,10.19,0,0,1,4.6,8v9.32c0,2.93-2.06,4.13-4.6,2.66l-42.63-24.62a10.17,10.17,0,0,1-4.61-8V115C105.77,112.06,107.83,110.87,110.38,112.34Z" style="fill:#f0f0f0"></path><path d="M274.19,258.7l42.63,24.61a10.17,10.17,0,0,1,4.61,8v9.32c0,2.94-2.06,4.13-4.61,2.66l-42.63-24.62a10.18,10.18,0,0,1-4.61-8v-9.32C269.58,258.42,271.65,257.23,274.19,258.7Z" style="fill:#f0f0f0"></path><path d="M244.58,216.29l42.63,24.61a10.17,10.17,0,0,1,4.61,8v9.32c0,2.94-2.06,4.13-4.61,2.66l-42.63-24.62a10.17,10.17,0,0,1-4.6-8V219C240,216,242,214.82,244.58,216.29Z" style="fill:#f0f0f0"></path><path d="M442.18,107.49l42.63,24.62a7.53,7.53,0,0,1,1.62,1.29v19.24a4.55,4.55,0,0,1-1.62-.58l-42.63-24.61a10.2,10.2,0,0,1-4.61-8v-9.32C437.57,107.22,439.64,106,442.18,107.49Z" style="fill:#f0f0f0"></path><path d="M460.88,148v9.32c0,2.94-2.06,4.13-4.61,2.66l-42.63-24.61a10.2,10.2,0,0,1-4.61-8v-9.32c0-2.94,2.07-4.13,4.61-2.66l42.63,24.62A10.14,10.14,0,0,1,460.88,148Z" style="fill:#f0f0f0"></path><path d="M460.88,344.45v9.32c0,2.94-2.06,4.13-4.61,2.66l-42.63-24.61a10.2,10.2,0,0,1-4.61-8v-9.32c0-2.94,2.07-4.13,4.61-2.66l42.63,24.62A10.15,10.15,0,0,1,460.88,344.45Z" style="fill:#f0f0f0"></path><path d="M469.11,245.44l17.32,10v20l-17.32-10a10.2,10.2,0,0,1-4.61-8V248.1C464.5,245.16,466.57,244,469.11,245.44Z" style="fill:#f0f0f0"></path><path d="M386.71,173.54l42.64,24.62a10.18,10.18,0,0,1,4.6,8v9.32c0,2.94-2.06,4.13-4.6,2.66L386.71,193.5a10.19,10.19,0,0,1-4.6-8V176.2C382.11,173.26,384.17,172.07,386.71,173.54Z" style="fill:#e0e0e0"></path><path d="M275.77,60.59,318.41,85.2a10.19,10.19,0,0,1,4.6,8v9.32c0,2.94-2.06,4.13-4.6,2.66L275.77,80.54a10.17,10.17,0,0,1-4.6-8V63.25C271.17,60.31,273.23,59.12,275.77,60.59Z" style="fill:#f0f0f0"></path><path d="M223.93,102l42.63,24.61a10.17,10.17,0,0,1,4.61,8v9.32c0,2.93-2.06,4.12-4.61,2.66L223.93,122a10.2,10.2,0,0,1-4.61-8v-9.32C219.32,101.73,221.39,100.54,223.93,102Z" style="fill:#f0f0f0"></path><path d="M217.39,25.35,260,50a10.19,10.19,0,0,1,4.6,8v9.31c0,2.94-2.06,4.13-4.6,2.66L217.39,45.31a10.17,10.17,0,0,1-4.61-8V28C212.78,25.07,214.84,23.88,217.39,25.35Z" style="fill:#e0e0e0"></path><path d="M363.52,37.67l42.63,24.62a10.17,10.17,0,0,1,4.61,8v9.31c0,2.94-2.06,4.13-4.61,2.66L363.52,57.63a10.17,10.17,0,0,1-4.61-8V40.33C358.91,37.4,361,36.21,363.52,37.67Z" style="fill:#e0e0e0"></path><path d="M358.17,231,400.8,255.6a10.15,10.15,0,0,1,4.61,8v9.32c0,2.94-2.06,4.13-4.61,2.66l-42.63-24.61a10.19,10.19,0,0,1-4.6-8v-9.32C353.57,230.7,355.63,229.51,358.17,231Z" style="fill:#e0e0e0"></path><path d="M246.36,143.81,289,168.42a10.19,10.19,0,0,1,4.6,8v9.32c0,2.93-2.06,4.12-4.6,2.66l-42.64-24.62a10.19,10.19,0,0,1-4.6-8v-9.32C241.76,143.53,243.82,142.34,246.36,143.81Z" style="fill:#e0e0e0"></path><path d="M72.6,218.3v9.32c0,2.94-2.06,4.13-4.61,2.66L25.36,205.66a10.18,10.18,0,0,1-4.61-8v-9.32c0-2.94,2.07-4.13,4.61-2.66L68,210.32A10.17,10.17,0,0,1,72.6,218.3Z" style="fill:#e0e0e0"></path><path d="M41.07,268.42l-27.5-15.88v20l27.5,15.88c2.54,1.47,4.6.28,4.6-2.66v-9.32A10.17,10.17,0,0,0,41.07,268.42Z" style="fill:#f0f0f0"></path><path d="M41.07,149.27l-27.5-15.88v20l27.5,15.88c2.54,1.46,4.6.27,4.6-2.66v-9.32A10.19,10.19,0,0,0,41.07,149.27Z" style="fill:#f0f0f0"></path><path d="M41.07,51.27,13.57,35.39v20l27.5,15.88c2.54,1.47,4.6.28,4.6-2.66V59.24A10.17,10.17,0,0,0,41.07,51.27Z" style="fill:#f0f0f0"></path><path d="M293.6,102.38v9.32c0,2.94-2.06,4.13-4.6,2.66L246.36,89.74a10.17,10.17,0,0,1-4.6-8V72.45c0-2.94,2.06-4.13,4.6-2.66L289,94.4A10.17,10.17,0,0,1,293.6,102.38Z" style="fill:#f0f0f0"></path><path d="M442.18,254.52l42.63,24.62a7.53,7.53,0,0,1,1.62,1.29v19.24a4.55,4.55,0,0,1-1.62-.58l-42.63-24.61a10.2,10.2,0,0,1-4.61-8v-9.32C437.57,254.25,439.64,253.06,442.18,254.52Z" style="fill:#f0f0f0"></path><path d="M164.84,67.89,207.47,92.5a10.17,10.17,0,0,1,4.61,8v9.32c0,2.94-2.06,4.13-4.61,2.66L164.84,87.84a10.15,10.15,0,0,1-4.61-8V70.55C160.23,67.61,162.29,66.42,164.84,67.89Z" style="fill:#f0f0f0"></path><path d="M223.93,300.35,266.56,325a10.17,10.17,0,0,1,4.61,8v9.31c0,2.94-2.06,4.13-4.61,2.66l-42.63-24.61a10.2,10.2,0,0,1-4.61-8V303C219.32,300.08,221.39,298.88,223.93,300.35Z" style="fill:#f0f0f0"></path><path d="M246.36,342.15,289,366.77a10.18,10.18,0,0,1,4.6,8v9.32c0,2.94-2.06,4.13-4.6,2.66l-42.64-24.61a10.19,10.19,0,0,1-4.6-8v-9.32C241.76,341.88,243.82,340.68,246.36,342.15Z" style="fill:#e0e0e0"></path><path d="M164.84,266.24l42.63,24.61a10.17,10.17,0,0,1,4.61,8v9.32c0,2.94-2.06,4.13-4.61,2.66l-42.63-24.62a10.17,10.17,0,0,1-4.61-8V268.9C160.23,266,162.29,264.77,164.84,266.24Z" style="fill:#f0f0f0"></path><path d="M104.1,332.4v9.32c0,2.94-2.06,4.13-4.6,2.66L56.86,319.76a10.17,10.17,0,0,1-4.6-8v-9.32c0-2.94,2.06-4.13,4.6-2.66L99.5,324.42A10.19,10.19,0,0,1,104.1,332.4Z" style="fill:#f0f0f0"></path><path d="M212.08,353.27v9.32c0,2.94-2.06,4.13-4.61,2.66l-42.63-24.62a10.17,10.17,0,0,1-4.61-8v-9.32c0-2.94,2.06-4.13,4.61-2.66l42.63,24.61A10.17,10.17,0,0,1,212.08,353.27Z" style="fill:#e0e0e0"></path><path d="M154,418.79v9.32c0,2.94-2.06,4.13-4.61,2.66l-42.63-24.62a10.15,10.15,0,0,1-4.6-8v-9.32c0-2.94,2.06-4.13,4.6-2.66l42.63,24.61A10.17,10.17,0,0,1,154,418.79Z" style="fill:#e0e0e0"></path><path d="M73.82,444.48v9.32c0,2.94-2.06,4.13-4.61,2.66L26.58,431.85a10.19,10.19,0,0,1-4.6-8v-9.32c0-2.94,2.06-4.13,4.6-2.66l42.63,24.62A10.17,10.17,0,0,1,73.82,444.48Z" style="fill:#e0e0e0"></path><path d="M274.19,383.81l42.63,24.62a10.15,10.15,0,0,1,4.61,8v9.32c0,2.94-2.06,4.13-4.61,2.66l-42.63-24.61a10.2,10.2,0,0,1-4.61-8v-9.32C269.58,383.53,271.65,382.34,274.19,383.81Z" style="fill:#f0f0f0"></path><path d="M460.88,469.57v9.31c0,2.94-2.06,4.13-4.61,2.66l-42.63-24.61a10.2,10.2,0,0,1-4.61-8v-9.32c0-2.93,2.07-4.12,4.61-2.66l42.63,24.62A10.17,10.17,0,0,1,460.88,469.57Z" style="fill:#f0f0f0"></path><path d="M359.67,414.6v9.32c0,2.94-2.07,4.13-4.61,2.66L312.43,402a10.17,10.17,0,0,1-4.61-8v-9.32c0-2.94,2.06-4.13,4.61-2.66l42.63,24.62A10.19,10.19,0,0,1,359.67,414.6Z" style="fill:#f0f0f0"></path><path d="M469.11,370.55l17.32,10v19.95l-17.32-10a10.2,10.2,0,0,1-4.61-8v-9.32C464.5,370.28,466.57,369.09,469.11,370.55Z" style="fill:#f0f0f0"></path><path d="M358.17,356.09l42.63,24.62a10.17,10.17,0,0,1,4.61,8V398c0,2.94-2.06,4.13-4.61,2.66l-42.63-24.61a10.19,10.19,0,0,1-4.6-8v-9.32C353.57,355.82,355.63,354.62,358.17,356.09Z" style="fill:#e0e0e0"></path><path d="M72.6,343.41v9.32c0,2.94-2.06,4.13-4.61,2.66L25.36,330.78a10.2,10.2,0,0,1-4.61-8v-9.32c0-2.94,2.07-4.13,4.61-2.66L68,335.44A10.15,10.15,0,0,1,72.6,343.41Z" style="fill:#e0e0e0"></path><path d="M41.07,393.53l-27.5-15.88v20l27.5,15.87c2.54,1.47,4.6.28,4.6-2.66V401.5A10.18,10.18,0,0,0,41.07,393.53Z" style="fill:#f0f0f0"></path><path d="M442.18,379.64l42.63,24.61a7.53,7.53,0,0,1,1.62,1.29v19.24a4.51,4.51,0,0,1-1.62-.57l-42.63-24.62a10.2,10.2,0,0,1-4.61-8V382.3C437.57,379.36,439.64,378.17,442.18,379.64Z" style="fill:#f0f0f0"></path><path d="M223.93,425.47l42.63,24.61a10.17,10.17,0,0,1,4.61,8v9.32c0,2.93-2.06,4.12-4.61,2.66l-42.63-24.62a10.2,10.2,0,0,1-4.61-8v-9.32C219.32,425.19,221.39,424,223.93,425.47Z" style="fill:#f0f0f0"></path><path d="M253.05,414.08l42.64,24.62a10.19,10.19,0,0,1,4.6,8V456c0,2.93-2.06,4.12-4.6,2.65L253.05,434a10.19,10.19,0,0,1-4.6-8v-9.32C248.45,413.81,250.51,412.62,253.05,414.08Z" style="fill:#e0e0e0"></path><path d="M164.84,391.35,207.47,416a10.17,10.17,0,0,1,4.61,8v9.32c0,2.94-2.06,4.13-4.61,2.66L164.84,411.3a10.15,10.15,0,0,1-4.61-8V394C160.23,391.07,162.29,389.88,164.84,391.35Z" style="fill:#f0f0f0"></path><path d="M164.84,349.24l42.63,24.61a10.17,10.17,0,0,1,4.61,8v9.32c0,2.94-2.06,4.13-4.61,2.66L164.84,369.2a10.17,10.17,0,0,1-4.61-8V351.9C160.23,349,162.29,347.77,164.84,349.24Z" style="fill:#f0f0f0"></path><path d="M405.41,214.09v9.32c0,2.94-2.06,4.13-4.6,2.66l-42.64-24.62a10.17,10.17,0,0,1-4.6-8v-9.32c0-2.94,2.06-4.13,4.6-2.66l42.63,24.61A10.17,10.17,0,0,1,405.41,214.09Z" style="fill:#f0f0f0"></path></g></g><g id="freepik--Shelf--inject-70"><g id="freepik--shelf--inject-70"><path d="M404.36,346.47v4.69l-4.07-2.34v65.36a9.58,9.58,0,0,0,4.33,7.5l7.59,4.38a3,3,0,0,0,3.13.26c.69-.44,3.22-1.89,3.94-2.28a3,3,0,0,0,1.32-2.83V355.86Z" style="fill:#37474f"></path><path d="M416.54,423.56c0,2.76-1.94,3.88-4.33,2.5l-7.58-4.38a9.55,9.55,0,0,1-4.33-7.5V348.82l16.24,9.38Z" style="fill:#263238"></path><path d="M408.42,405.1a9,9,0,0,1,4.06,7c0,2.59-1.82,3.64-4.06,2.34a9,9,0,0,1-4.06-7C404.36,404.86,406.18,403.81,408.42,405.1Z" style="fill:#37474f"></path><polygon points="428.73 365.24 428.73 416.83 420.61 412.14 416.54 414.08 400.3 404.7 400.3 400.42 128.14 243.27 128.14 186.99 428.73 365.24" style="opacity:0.1"></polygon><polygon points="128.14 177.63 428.73 351.18 319.05 414.5 18.46 240.95 128.14 177.63" style="fill:#455a64"></polygon><polygon points="128.14 177.63 428.73 351.18 319.05 414.5 18.46 240.95 128.14 177.63" style="fill:#455a64"></polygon><polygon points="18.46 240.95 18.46 255.01 319.05 428.56 319.05 414.5 18.46 240.95" style="fill:#37474f"></polygon><polygon points="428.73 351.18 319.05 414.5 319.05 428.56 428.73 365.24 428.73 351.18" style="fill:#263238"></polygon></g></g><g id="freepik--Shadows--inject-70"><polygon id="freepik--Shadow--inject-70" points="270.31 381.67 371.86 323.04 213.44 231.57 111.89 290.2 270.31 381.67" style="fill:#37474f"></polygon><polygon id="freepik--shadow--inject-70" points="150.67 279.37 209.38 245.47 117.79 192.59 59.08 226.49 150.67 279.37" style="fill:#37474f"></polygon><path id="freepik--shadow--inject-70" d="M367.8,355.87c11.22,6.48,11.22,17,0,23.45s-29.41,6.48-40.62,0-11.22-17,0-23.45S356.58,349.39,367.8,355.87Z" style="fill:#37474f"></path></g><g id="freepik--Picture--inject-70"><g id="freepik--picture--inject-70"><g id="freepik--Frame--inject-70"><polygon points="148.81 262.95 144.98 264.8 73.9 223.76 77.74 221.91 148.81 262.95" style="fill:#FF725E"></polygon><polygon points="148.81 262.95 144.98 264.8 73.9 223.76 77.74 221.91 148.81 262.95" style="opacity:0.2"></polygon><polygon points="77.74 221.91 145.35 260.94 156.8 142.68 89.18 103.68 77.74 221.91" style="fill:#fafafa"></polygon><polygon points="85.72 219.52 95.89 114.54 148.81 145.07 138.65 250.08 85.72 219.52" style="fill:#e0e0e0"></polygon><path d="M127.69,155.65a9.21,9.21,0,0,1,4.34,8.1c-.29,2.93-2.69,4.05-5.37,2.51a9.26,9.26,0,0,1-4.34-8.11C122.61,155.22,125,154.1,127.69,155.65Z" style="fill:#fafafa"></path><path d="M66.67,227.13l84.15,48.59L164,139.31,79.88,90.73Zm19-125.49,71.08,41L145,264.8l-71.08-41Z" style="fill:#FF725E"></path><path d="M66.67,227.13l84.15,48.59L164,139.31,79.88,90.73Zm19-125.49,71.08,41L145,264.8l-71.08-41Z" style="fill:#FF725E"></path><polygon points="73.9 223.76 77.74 221.91 89.18 103.68 85.72 101.64 73.9 223.76" style="fill:#FF725E"></polygon><polygon points="73.9 223.76 77.74 221.91 89.18 103.68 85.72 101.64 73.9 223.76" style="opacity:0.35000000000000003"></polygon><polygon points="79.88 90.73 83.77 88.93 167.92 137.51 164.03 139.31 79.88 90.73" style="fill:#FF725E"></polygon><polygon points="79.88 90.73 83.77 88.93 167.92 137.51 164.03 139.31 79.88 90.73" style="fill:#fff;opacity:0.2"></polygon><polygon points="167.92 137.51 164.03 139.31 150.82 275.72 154.71 273.92 167.92 137.51" style="fill:#FF725E"></polygon><polygon points="167.92 137.51 164.03 139.31 150.82 275.72 154.71 273.92 167.92 137.51" style="opacity:0.35000000000000003"></polygon></g><polygon points="95.61 173.89 112.17 153.79 123.32 200.9 123.62 191.28 131.02 180.76 137.42 206.18 134.04 241.13 91.48 216.56 95.61 173.89" style="fill:#fafafa"></polygon></g></g><g id="freepik--Books--inject-70"><g id="freepik--Book--inject-70"><polygon points="362.18 318.31 268.03 372.01 134.11 295.16 228.25 250.57 362.18 318.31" style="fill:#FF725E"></polygon><path d="M267.1,368.5l91.29-52.37c-2.05-5.79-1.89-3.43.42-11.15L268,356.87S266.54,352.64,267.1,368.5Z" style="fill:#f5f5f5"></path><path d="M272,350.53a16.5,16.5,0,0,0-7.52,12.94v6c0,4.76,3.37,6.69,7.52,4.31l90.15-51.72v-3.74l-89.13,50.85c-2.49,1.43-4.5.27-4.5-2.59l.07-4.88a9.89,9.89,0,0,1,4.51-7.76l89-50.87v-4.24Z" style="fill:#FF725E"></path><path d="M272,350.53a16.5,16.5,0,0,0-7.52,12.94v6c0,4.76,3.37,6.69,7.52,4.31l90.15-51.72v-3.74l-89.13,50.85c-2.49,1.43-4.5.27-4.5-2.59l.07-4.88a9.89,9.89,0,0,1,4.51-7.76l89-50.87v-4.24Z" style="fill:#fff;opacity:0.30000000000000004"></path><path d="M362.17,298.82,228.25,222,138.1,273.68a16.52,16.52,0,0,0-7.51,12.94v6c0,2.37.83,4,2.2,4.83l133.92,76.85c-1.37-.78-2.2-2.45-2.2-4.82l0-6A16.49,16.49,0,0,1,272,350.53Z" style="fill:#FF725E"></path><path d="M362.17,298.82,228.25,222,138.1,273.68a16.52,16.52,0,0,0-7.51,12.94v6c0,2.37.83,4,2.2,4.83l133.92,76.85c-1.37-.78-2.2-2.45-2.2-4.82l0-6A16.49,16.49,0,0,1,272,350.53Z" style="fill:#fff;opacity:0.7000000000000001"></path><path d="M266.7,356.1a15.24,15.24,0,0,0-2.21,7.36l0,6c0,2.37.83,4,2.2,4.82L132.79,297.44c-1.37-.79-2.2-2.46-2.2-4.83v-6a15.19,15.19,0,0,1,2.2-7.36Z" style="fill:#FF725E"></path><path d="M266.7,356.1a15.24,15.24,0,0,0-2.21,7.36l0,6c0,2.37.83,4,2.2,4.82L132.79,297.44c-1.37-.79-2.2-2.46-2.2-4.83v-6a15.19,15.19,0,0,1,2.2-7.36Z" style="fill:#FF725E"></path><path d="M266.7,356.1a15.24,15.24,0,0,0-2.21,7.36l0,6c0,2.37.83,4,2.2,4.82L132.79,297.44c-1.37-.79-2.2-2.46-2.2-4.83v-6a15.19,15.19,0,0,1,2.2-7.36Z" style="fill:#fff;opacity:0.4"></path></g><g id="freepik--book--inject-70"><polygon points="370.77 296.5 276.62 350.21 142.7 273.36 236.85 227.82 370.77 296.5" style="fill:#FF725E"></polygon><polygon points="370.77 296.5 276.62 350.21 142.7 273.36 236.85 227.82 370.77 296.5" style="opacity:0.5"></polygon><path d="M275.7,346.7,367,294.33c-2-5.8-1.89-4.39.43-12.11l-90.79,51.89S275.14,330.84,275.7,346.7Z" style="fill:#f5f5f5"></path><path d="M280.61,327.78a16.48,16.48,0,0,0-7.51,12.93v6.94c0,4.77,3.36,6.7,7.51,4.32l90.15-51.72v-3.74l-89.12,50.85c-2.49,1.42-4.51.27-4.5-2.59l.07-5.83a9.91,9.91,0,0,1,4.51-7.77l89-50.87v-4.24Z" style="fill:#FF725E"></path><path d="M280.61,327.78a16.48,16.48,0,0,0-7.51,12.93v6.94c0,4.77,3.36,6.7,7.51,4.32l90.15-51.72v-3.74l-89.12,50.85c-2.49,1.42-4.51.27-4.5-2.59l.07-5.83a9.91,9.91,0,0,1,4.51-7.77l89-50.87v-4.24Z" style="opacity:0.30000000000000004"></path><path d="M370.76,276.07,236.85,199.21,146.7,250.93a16.48,16.48,0,0,0-7.51,12.93v6.95c0,2.37.84,4,2.21,4.83l133.92,76.85c-1.37-.78-2.2-2.46-2.21-4.83v-7a16.52,16.52,0,0,1,7.51-12.94Z" style="fill:#FF725E"></path><path d="M370.76,276.07,236.85,199.21,146.7,250.93a16.48,16.48,0,0,0-7.51,12.93v6.95c0,2.37.84,4,2.21,4.83l133.92,76.85c-1.37-.78-2.2-2.46-2.21-4.83v-7a16.52,16.52,0,0,1,7.51-12.94Z" style="opacity:0.1"></path><path d="M275.29,333.35a15.19,15.19,0,0,0-2.2,7.36v7c0,2.37.84,4,2.21,4.83L141.39,275.64c-1.37-.79-2.2-2.46-2.21-4.83v-6.95a15.22,15.22,0,0,1,2.2-7.36Z" style="fill:#FF725E"></path><path d="M275.29,333.35a15.19,15.19,0,0,0-2.2,7.36v7c0,2.37.84,4,2.21,4.83L141.39,275.64c-1.37-.79-2.2-2.46-2.21-4.83v-6.95a15.22,15.22,0,0,1,2.2-7.36Z" style="fill:#FF725E"></path><path d="M275.29,333.35a15.19,15.19,0,0,0-2.2,7.36v7c0,2.37.84,4,2.21,4.83L141.39,275.64c-1.37-.79-2.2-2.46-2.21-4.83v-6.95a15.22,15.22,0,0,1,2.2-7.36Z" style="opacity:0.25"></path></g></g><g id="freepik--Cat--inject-70"><g id="freepik--cat--inject-70"><path d="M164.1,198.35c-11.26,1.29-21.14,6.49-30,13.29-1.88,1.44-3.73,2.91-5.48,4.5-18.92,17.15-23.74,46.29-10.75,68.3,5.28,8.94,12.7,16.45,20.81,22.92,6,4.79,12.14,8.05,16.54,14.43,4,5.74,2.85,11.9.68,16.12a33.44,33.44,0,0,0,20.5-17.85c4.64-10.12,3.48-21.76-1.86-31.33-6.63-11.87-17.32-21-23.25-33.11C145.82,244.57,145.9,231,153,220.7a32.37,32.37,0,0,1,25.65-13.65,6.06,6.06,0,0,0,3.38-.67c1.71-1.17,1.51-4,.1-5.47s-3.57-2-5.62-2.37A46.24,46.24,0,0,0,164.1,198.35Z" style="fill:#37474f"></path><path d="M176.36,320.06c4.64-10.12,3.48-21.76-1.86-31.33-.94-1.69-2-3.32-3.06-4.92a27.53,27.53,0,0,1,1.37,10c.11-2.15-9.31-11.49-10.21-9.84a1.77,1.77,0,0,0-.07,1.12c.71,4.28,2.26,8.13,2.11,12.51-5.37-3.78-9.63-9.12-15.44-12.17-.38-.19-.9-.36-1.18,0a.94.94,0,0,0-.17.64,12.63,12.63,0,0,0,.85,3.91,83.85,83.85,0,0,0,5.63,12.89,78.64,78.64,0,0,1-10.54-8.27c-1.46-1.37-3.13-2.88-5.12-2.77a14.44,14.44,0,0,0,2.83,10.36,115.08,115.08,0,0,1-22.37-15.69c5.16,8,12,14.9,19.51,20.87,6,4.79,12.14,8.05,16.54,14.43,4,5.74,2.85,11.9.68,16.12A33.44,33.44,0,0,0,176.36,320.06Z" style="fill:#f5f5f5"></path><path d="M323.4,279.16c15,12.25,21.9,5.75,31.55-3.51s25-25.51,28.49-26.1,15.21-.47,14.07-7.05c-1-5.87-8.59-9.07-17.63-7.37s-12.69,4.5-17.24,6.65c-3.84,1.82-8.25,3.67-12.95,6.35-3.11,1.77-8-6.72-11.52-10.36Z" style="fill:#37474f"></path><path d="M392,239.15c-.1-.11-.13-.52.11-.46,2.4.57,4.15,2.77,5,5a8,8,0,0,1,.3,1,4.23,4.23,0,0,1-1.67,2.13,9.91,9.91,0,0,0-.17-1.64C395.1,242.72,393.58,240.87,392,239.15Z" style="fill:#263238"></path><path d="M390,245a10.92,10.92,0,0,0-1-2.33,6.47,6.47,0,0,0-2.4-2.36c-.23-.13-.16-.73.16-.63a8.35,8.35,0,0,1,4.2,3,9.87,9.87,0,0,1,1.69,5.53c-.71.2-1.45.37-2.19.51A12.37,12.37,0,0,0,390,245Z" style="fill:#263238"></path><path d="M342,226.66c-3.52,2.35-4.35,6.08-2.88,10a35.56,35.56,0,0,0,2.59,5c2.5,4.35,4.59,9.33,3.7,14.27a11.34,11.34,0,0,0-4.09-5.72,12.28,12.28,0,0,1-3.05,15.09,22.4,22.4,0,0,0-2-6.62,14.06,14.06,0,0,1-1.55,7.69c-1.06,2.19-2.7,3.95-3.89,6-.81,1.43-1.52,2.86-2.48,4.24a55.19,55.19,0,0,1-7.16,8.26c-3.26,3.1-8.77,7.57-12.78,9.58-14.27,7.14-48.88,4.91-67-14.52S212,261.62,196,255.55s-45.08-8.71-45.08-37.3c0-28.41,15.19-42.24,23.78-43.4,7.83-18.27,31.1-24.93,50.72-22.54,15.3,1.86,28.9,10.25,39.6,23.7s29.06,18,29.06,18Z" style="fill:#455a64"></path><path d="M338.63,264.23c-.88.61-1.16-1.08-2-2.18.77,7.31-1.93,12.81-7.5,17.54a15.24,15.24,0,0,0,.37-4c-.14,1.86-2.16,4.72-3.12,5.87a50.68,50.68,0,0,1-18.06,13c3.35-3.35,4.59-8.55,3-12.57q-1.07,2-2.11,4.1a13.08,13.08,0,0,1-3.31-8.75,42.58,42.58,0,0,1,1.15-9.85c-.84,1.89-2.18,7.8-4.57,4.9-2-2.43-2.18-6.28-2-9.41.56-9,4.59-17.22,12.56-21.9,6.46-3.79,18.58-6.05,24,.79a22.68,22.68,0,0,1,4,10.55C341.51,256.37,341.18,261.71,338.63,264.23Z" style="fill:#ebebeb"></path><path d="M277.4,183.62c-5-8.86-3.67-29.58,3.82-33.78,7.07-4,23.34,16.88,23.34,16.88S291.18,181.48,277.4,183.62Z" style="fill:#37474f"></path><path d="M285.94,178.3c9.42-5.48,18.62-11.58,18.62-11.58s-15.52-19.81-21.33-16.5C279.57,151.78,275.85,163.4,285.94,178.3Z" style="fill:#ffa8a7"></path><path d="M299.21,167a9.15,9.15,0,0,1-3.84-3.51,9.62,9.62,0,0,1-1.79-5.78c-3.49,2.39-4.95,8.16-4.95,8.16-5.09-.82-4.77-5.92-4.77-5.92-2.59,2.8-2.5,9.86,2,13.52a12.34,12.34,0,0,0,7.05-1.18C296.86,170.5,298.94,168.44,299.21,167Z" style="fill:#f28f8f"></path><path d="M288.53,174.85c-3.35-2.33-5.45-7.27-4-10.68,0,0,2.32,2.91,5,3,0,0,1.32-9.64,6.66-11.11,0,0-1.16,6.35,3.57,9.81C301.2,174.85,288.53,174.85,288.53,174.85Z" style="fill:#455a64"></path><path d="M317.45,162.4c4.68-7.79,18.16-15.45,26.31-9.77,4.59,3.21-4.35,26-4.35,26S324.14,172.45,317.45,162.4Z" style="fill:#37474f"></path><path d="M324,168.76c7.52,5.15,15.43,9.86,15.43,9.86s8.94-22.78,4.35-26C340.62,151.16,331.24,154.38,324,168.76Z" style="fill:#ffa8a7"></path><path d="M338.48,173.58a10,10,0,0,1,1.91-2.62c.5-1.44,1.06-3.12,1.59-4.9a17.22,17.22,0,0,0-7.35-1.75c-.17-2.51,2.09-5,2.09-5-3-.87-8,2.08-9.09,7.2a15.59,15.59,0,0,0,3.32,5.23c1.66.89,3.17,1.63,4.42,2.22A7.24,7.24,0,0,0,338.48,173.58Z" style="fill:#f28f8f"></path><path d="M328.93,168.25c1-3.54,4.38-6.79,7.41-6.59,0,0-1.72,2.83-1.14,5.16,0,0,7.92-1.72,10.4,2.4,0,0-5.28.88-6.84,5.94C332.07,179.06,328.93,168.25,328.93,168.25Z" style="fill:#455a64"></path><path d="M314.31,161.83a42.38,42.38,0,0,1,23.53,10.56,69.15,69.15,0,0,1,15,19.05c1.76,3.2,3.67,6.42,4.57,10a23.8,23.8,0,0,1-.26,12.75,16,16,0,0,0-2.11-4.89c.38,2.28-.44,5.17-1.4,7.28a8,8,0,0,0-.89-3.12,20.29,20.29,0,0,1-1.52,2.39c-.66,1-1.35,1.93-2.08,2.86a44.94,44.94,0,0,1-5,5.36,31.67,31.67,0,0,1-12.43,7.34,22.5,22.5,0,0,1-2.93.64A62.92,62.92,0,0,1,301,229.64a70.57,70.57,0,0,1-12.32-5.13c-1.64-.87-7.26-4.88-7.48-7.62a3.41,3.41,0,0,0-2,2.86,11.8,11.8,0,0,1-3.64-13.07,12.12,12.12,0,0,0-4.73,5.22c-2.14-2.61-2.49-6.25-2.24-9.62.41-5.71,3.22-10.45,6.24-15.16C283.26,173.84,298.09,162.53,314.31,161.83Z" style="fill:#455a64"></path><path d="M352.73,213.44a40.68,40.68,0,0,1-2.88,4.37,40.18,40.18,0,0,1-3.3,4.07,38.43,38.43,0,0,1-8,6.74A29.25,29.25,0,0,1,333.8,231a29.78,29.78,0,0,1-5.1,1.38,56.75,56.75,0,0,1-10.5.62,67.56,67.56,0,0,1-20.57-4,65.08,65.08,0,0,1-9.61-4.32,28.63,28.63,0,0,1-4.22-3.21,15.4,15.4,0,0,1-1.83-1.95,5.26,5.26,0,0,1-1.19-2.54l.51.32a3,3,0,0,0-1.82,2.53l0,.7-.54-.43a12.09,12.09,0,0,1-3.71-13.47l.45.38A11.75,11.75,0,0,0,271,212l-.18.38-.26-.33a11.31,11.31,0,0,1-2.26-6.33,21.75,21.75,0,0,1,.55-6.68c1.08-4.38,3.47-8.24,5.91-11.94-2.35,3.76-4.64,7.67-5.6,12a22,22,0,0,0-.42,6.58,10.88,10.88,0,0,0,2.23,6l-.45,0a12.46,12.46,0,0,1,4.81-5.38l.76-.45-.31.83a11.52,11.52,0,0,0,3.57,12.68l-.58.26a3.76,3.76,0,0,1,2.25-3.18l.46-.19.06.5a4.57,4.57,0,0,0,1,2.13,15.45,15.45,0,0,0,1.76,1.86,27.43,27.43,0,0,0,4.11,3.09,72,72,0,0,0,9.47,4.26,66.71,66.71,0,0,0,20.33,4.07,59.11,59.11,0,0,0,10.38-.51,29.66,29.66,0,0,0,5-1.27,28.21,28.21,0,0,0,4.66-2.26,40.24,40.24,0,0,0,8.09-6.52,37.79,37.79,0,0,0,3.38-4A39.55,39.55,0,0,0,352.73,213.44Z" style="fill:#263238"></path><path d="M315.88,204.92c9.83-5.66,4.69-30.07,4.69-30.07,5.13,10.66,7.05,23.33,17.2,27.5,8.83,3.63,13.56,6.6,11.4,16.28-4.58,6.7-11.7,13-20.12,14.1-7.27.93-16.28.49-27.05-2.78C297.41,217,303.45,212.07,315.88,204.92Z" style="fill:#fafafa"></path><path d="M304.61,195.65a4.22,4.22,0,1,0,4.81-3.54A4.23,4.23,0,0,0,304.61,195.65Z" style="fill:#fff"></path><path d="M303.88,195.31a4.22,4.22,0,1,0,4.81-3.54A4.22,4.22,0,0,0,303.88,195.31Z" style="fill:#263238"></path><path d="M308.05,194.79a1.27,1.27,0,1,1-1.27-1.27A1.27,1.27,0,0,1,308.05,194.79Z" style="fill:#fafafa"></path><path d="M334,193.09a3.9,3.9,0,1,0,4.45-3.26A3.88,3.88,0,0,0,334,193.09Z" style="fill:#fff"></path><path d="M333.33,192.78a3.89,3.89,0,1,0,4.44-3.27A3.89,3.89,0,0,0,333.33,192.78Z" style="fill:#263238"></path><circle cx="336.01" cy="192.3" r="1.17" style="fill:#fafafa"></circle><path d="M300.48,211.14l.06,0a.73.73,0,0,0,.2-1c-2.07-3.45-5.92-7.41-12.56-6.62a.7.7,0,0,0,.17,1.39c5.95-.71,9.42,2.85,11.28,6A.64.64,0,0,0,300.48,211.14Z" style="fill:#263238"></path><path d="M298.62,212.8a.62.62,0,0,0,.18-.14.73.73,0,0,0,0-1,11.54,11.54,0,0,0-9.12-2.77.7.7,0,0,0,.27,1.37,10.2,10.2,0,0,1,7.95,2.4A.65.65,0,0,0,298.62,212.8Z" style="fill:#263238"></path><path d="M298.88,215.66a.68.68,0,0,0,.28-.32.73.73,0,0,0-.34-.92,13.33,13.33,0,0,0-12.31,1,.71.71,0,0,0-.22,1,.65.65,0,0,0,.89.26h0a12,12,0,0,1,11.09-.94A.62.62,0,0,0,298.88,215.66Z" style="fill:#263238"></path><path d="M349.66,203.88l-.06,0a.71.71,0,0,1-.38-.9c1.34-3.8,4.34-8.43,11-9a.68.68,0,0,1,.71.65.67.67,0,0,1-.6.74c-6,.49-8.68,4.66-9.89,8.08A.65.65,0,0,1,349.66,203.88Z" style="fill:#263238"></path><path d="M351.81,205.13a.54.54,0,0,1-.2-.1.73.73,0,0,1-.17-1,11.55,11.55,0,0,1,8.39-4.51.7.7,0,0,1,0,1.39,10.25,10.25,0,0,0-7.32,3.92A.62.62,0,0,1,351.81,205.13Z" style="fill:#263238"></path><path d="M352.12,208a.63.63,0,0,1-.33-.25.73.73,0,0,1,.15-1,13.31,13.31,0,0,1,12.26-1.44.7.7,0,0,1,.4.89.64.64,0,0,1-.82.43h0a12.05,12.05,0,0,0-11.07,1.26A.59.59,0,0,1,352.12,208Z" style="fill:#263238"></path><path d="M320.85,219.8a7.11,7.11,0,0,1-4.85-1.71.8.8,0,0,1,1.08-1.17c1.69,1.57,4.84,1.74,7.33.4a6.68,6.68,0,0,0,3.39-6.94,5,5,0,0,1-.09-.74.8.8,0,0,1,1.58-.19l.09.66a7.34,7.34,0,0,0,3.05,4.58,5,5,0,0,0,4.77.16.8.8,0,1,1,.63,1.46,6.5,6.5,0,0,1-6.23-.26,7.92,7.92,0,0,1-2.43-2.39,7.8,7.8,0,0,1-4,5.06A9.18,9.18,0,0,1,320.85,219.8Z" style="fill:#263238"></path><path d="M328.65,211.5c1.14-.08,3.88-2.76,4-4.61s-9.06-.61-9.07.85C323.55,209.8,327.52,211.58,328.65,211.5Z" style="fill:#f28f8f"></path><path d="M224.81,210.42a26,26,0,0,0-3-8.06,31.79,31.79,0,0,0-5.21-6.89,37.64,37.64,0,0,0-15.87-9.4,45.62,45.62,0,0,0-9.86-1.61A42.16,42.16,0,0,0,171,187.62a32.79,32.79,0,0,0-16.3,15.16,41.13,41.13,0,0,0-3.74,17.15c-.26,10.09,2.19,20.92,9.67,27.69,9.56,8.74,22,15.41,34.58,20.71s21.64,5.22,25-.51c3.69-9.06-13.69-17.09-13.69-17.09s1.33-.48,3.8-3.14a31.29,31.29,0,0,0,7.8-11.11c3.56-6.17,2.92-14.09,1.16-21a6.43,6.43,0,0,1,2.94,5.67,18.56,18.56,0,0,0-5-15.73A15,15,0,0,1,224.81,210.42Z" style="fill:#455a64"></path><path d="M214.18,266.15a8.43,8.43,0,0,0-4.2-3c-.32-.1-.39.49-.16.63a6.4,6.4,0,0,1,2.4,2.36,11.61,11.61,0,0,1,1,2.32,12.39,12.39,0,0,1,.45,3.47,11.67,11.67,0,0,0,2.17-.59A9.71,9.71,0,0,0,214.18,266.15Z" style="fill:#263238"></path><path d="M220.11,267.82c0-.11.07-.23.12-.34s-.15-.5-.24-.75c-.87-2.2-2.61-4.4-5-5-.24-.06-.21.35-.11.46,1.61,1.72,3.13,3.57,3.58,5.95a10.71,10.71,0,0,1,.16,1.52A7.81,7.81,0,0,0,220.11,267.82Z" style="fill:#263238"></path><path d="M220.11,267.82a7.2,7.2,0,0,0-.3-5.75,15.71,15.71,0,0,0-3.61-4.65,35.08,35.08,0,0,0-4.72-3.58,45.14,45.14,0,0,0-5.17-2.89l-.49-.23.51-.23a5.88,5.88,0,0,0,1-.6c.32-.24.64-.5.94-.77A20.16,20.16,0,0,0,210,247.4h0a31.31,31.31,0,0,0,7.67-11v0a20.86,20.86,0,0,0,2.51-10.18,41.37,41.37,0,0,0-1.42-10.54l-.25-1,.85.54a6.83,6.83,0,0,1,3.12,6l-.79-.08a18.2,18.2,0,0,0-4.86-15.42l-.92-.94,1.27.34a15.3,15.3,0,0,1,7.85,5.13l-.58.27a26.76,26.76,0,0,0-3.08-8.29,31.62,31.62,0,0,0-5.43-7,37.79,37.79,0,0,0-15.25-9.09,37.86,37.86,0,0,1,15.54,8.79,32,32,0,0,1,5.61,7.06,27.4,27.4,0,0,1,3.26,8.43l.27,1.31-.85-1a14.72,14.72,0,0,0-7.53-4.85l.35-.6a18.9,18.9,0,0,1,5.13,16l-.79-.09a6.08,6.08,0,0,0-2.75-5.32l.6-.43a41.86,41.86,0,0,1,1.4,10.76,21.4,21.4,0,0,1-2.65,10.51l0,0a31,31,0,0,1-7.93,11.19h0a22.66,22.66,0,0,1-1.8,1.73,12.1,12.1,0,0,1-1,.78,5.89,5.89,0,0,1-1.13.66l0-.46a47.53,47.53,0,0,1,5.19,3,33,33,0,0,1,4.68,3.73,15.77,15.77,0,0,1,3.55,4.79A7.26,7.26,0,0,1,220.11,267.82Z" style="fill:#263238"></path><path d="M268.43,228c10.1-.5,16.77,4.68,20.7,11.6,5,8.8,6.37,21.24,4.52,31.18.2-4-2.59-7.44-5.6-10a30.33,30.33,0,0,1,2,23.05,14,14,0,0,0-5.08-8.39c2,3.6,1.92,7.82,1.82,11.82-.09,3.51-.82,7.51,1.83,10,3.66,3.48,8.11,5.38,12.14,8.26,5.17,3.72,8,7.13,9.24,14.42a18.18,18.18,0,0,1-1.11,7.71,7.86,7.86,0,0,1-7.38,4.34,8.35,8.35,0,0,1-5.14-2.38,50,50,0,0,1-3.71-4.72c-3.83-4.63-10.08-6.21-15.33-8.63-5.58-2.57-11.07-5.63-15.52-9.92a36.71,36.71,0,0,1-4.69-5.84,119.45,119.45,0,0,1-6.77-11.23c-1.78-3.37-4.08-7-5.31-10.52" style="fill:#455a64"></path><path d="M268.43,228c10.1-.5,16.77,4.68,20.7,11.6,5,8.8,6.37,21.24,4.52,31.18.2-4-2.59-7.44-5.6-10a30.33,30.33,0,0,1,2,23.05,14,14,0,0,0-5.08-8.39c2,3.6,1.92,7.82,1.82,11.82-.09,3.51-.82,7.51,1.83,10,3.66,3.48,8.11,5.38,12.14,8.26,5.17,3.72,8,7.13,9.24,14.42a18.18,18.18,0,0,1-1.11,7.71,7.86,7.86,0,0,1-7.38,4.34,8.35,8.35,0,0,1-5.14-2.38,50,50,0,0,1-3.71-4.72c-3.83-4.63-10.08-6.21-15.33-8.63-5.58-2.57-11.07-5.63-15.52-9.92a36.71,36.71,0,0,1-4.69-5.84,119.45,119.45,0,0,1-6.77-11.23c-1.78-3.37-4.08-7-5.31-10.52" style="fill:#455a64"></path><path d="M306.36,321.83c-.21-.13-.31.26-.24.4,1,2.14,1.82,4.38,1.48,6.78,0,.21-.08.43-.13.65a6.52,6.52,0,0,0,1.4-2,12.37,12.37,0,0,0,.41-1.22A7.08,7.08,0,0,0,306.36,321.83Z" style="fill:#263238"></path><path d="M304.23,331.61a9.51,9.51,0,0,0-.05-4.94,8.41,8.41,0,0,0-3-4.18c-.27-.19-.53.35-.35.55a6.59,6.59,0,0,1,1.52,3,11.19,11.19,0,0,1,.2,2.52,12.08,12.08,0,0,1-.68,3.43A7.54,7.54,0,0,0,304.23,331.61Z" style="fill:#263238"></path><path d="M268.43,228a23.68,23.68,0,0,1,7.11.6,20.6,20.6,0,0,1,6.54,2.89,25.32,25.32,0,0,1,8.82,11.15,46.84,46.84,0,0,1,3.55,13.87,51.83,51.83,0,0,1-.47,14.34l-.67-.08a9.27,9.27,0,0,0-1.62-5.41,19.76,19.76,0,0,0-3.89-4.33l.59-.47a30.36,30.36,0,0,1,2,23.33l-.42,1.3-.24-1.34a13.79,13.79,0,0,0-4.94-8.21l.46-.39a14.86,14.86,0,0,1,1.71,5.73,45.22,45.22,0,0,1,.11,5.93,55,55,0,0,0-.12,5.87,8,8,0,0,0,.71,2.76,6.84,6.84,0,0,0,1.81,2.18c2.95,2.57,6.39,4.52,9.68,6.67a40.77,40.77,0,0,1,4.77,3.49,14,14,0,0,1,3.62,4.61,14,14,0,0,0-3.7-4.52,42.44,42.44,0,0,0-4.82-3.37c-3.33-2.07-6.83-3.94-9.84-6.55a7.26,7.26,0,0,1-1.94-2.31,8.54,8.54,0,0,1-.77-2.92,55.52,55.52,0,0,1,.07-5.92,43.94,43.94,0,0,0-.15-5.86,14.38,14.38,0,0,0-1.67-5.49l-.78-1.35,1.23,1a14.34,14.34,0,0,1,5.23,8.56l-.66,0a30.27,30.27,0,0,0-2-22.77l-.91-1.78,1.5,1.32a20.31,20.31,0,0,1,4,4.52,10,10,0,0,1,1.69,5.83l-.68-.08a51.21,51.21,0,0,0,.57-14.15,46.8,46.8,0,0,0-3.41-13.74,25.75,25.75,0,0,0-8.56-11.09,20.55,20.55,0,0,0-6.41-3A23.68,23.68,0,0,0,268.43,228Z" style="fill:#263238"></path><path d="M248.67,286.26c-1.19-2-2.31-4.06-3.3-6.17-.51-1-1-2.12-1.41-3.22a16.72,16.72,0,0,1-1-3.4h.7a22.09,22.09,0,0,0-.28,3.16,11.83,11.83,0,0,0,.32,3.1l.54,2.09L243,280.08a20,20,0,0,1-2.56-4.78,25.66,25.66,0,0,1-1.3-5.23,35.53,35.53,0,0,1-.28-5.35,32.46,32.46,0,0,1,.6-5.31,39.28,39.28,0,0,0-.19,5.31,35.48,35.48,0,0,0,.5,5.25A29.4,29.4,0,0,0,241.1,275a21,21,0,0,0,2.51,4.55l-.71.35a12.48,12.48,0,0,1-.29-3.32,22.51,22.51,0,0,1,.33-3.27l.37-2.13.33,2.14a21,21,0,0,0,.9,3.3q.57,1.63,1.26,3.24C246.71,282,247.66,284.16,248.67,286.26Z" style="fill:#263238"></path></g></g><g id="freepik--Vase--inject-70"><g id="freepik--vase--inject-70"><g id="freepik--vase--inject-70"><g id="freepik--Ring--inject-70"><path d="M332.83,348.48c-2.4,3-2.73,7.15-.95,11.81a31.43,31.43,0,0,0,22.31,18.07c4.93.78,9-.42,11.35-3.37s2.73-7.15.95-11.81a31.43,31.43,0,0,0-22.31-18.07C339.25,344.33,335.22,345.53,332.83,348.48Zm11.91-.75c7.73,1.22,16.27,8.14,19.07,15.44s-1.19,12.24-8.92,11-16.26-8.14-19.07-15.44S337,346.5,344.74,347.73Z" style="fill:#FF725E"></path><path d="M332.82,348.48c-2.39,3-2.72,7.15-.94,11.81a31.43,31.43,0,0,0,22.31,18.07c4.93.78,9-.42,11.36-3.38s2.72-7.14.94-11.8a31.43,31.43,0,0,0-22.31-18.07C339.25,344.33,335.22,345.53,332.82,348.48Zm11.92-.75c7.73,1.22,16.27,8.14,19.07,15.44s-1.19,12.24-8.92,11-16.26-8.14-19.07-15.44S337,346.5,344.74,347.73Z" style="fill:#fff;opacity:0.4"></path><path d="M331.88,360.29a13.26,13.26,0,0,1-.56-9.11c-.36,1.2-1.1,4.7,1.58,9.83,3.53,6.75,11.46,13.46,20.23,15.73s13.37-2.81,14.29-5.95h0a9.16,9.16,0,0,1-1.9,4.2c-2.39,2.95-6.42,4.15-11.35,3.37a31.43,31.43,0,0,1-22.31-18.07Z" style="fill:#FF725E;opacity:0.1"></path><path d="M331.88,360.29a13.26,13.26,0,0,1-.56-9.11c-.36,1.2-1.1,4.7,1.58,9.83,3.53,6.75,11.46,13.46,20.23,15.73s13.37-2.81,14.29-5.95h0a9.16,9.16,0,0,1-1.9,4.2c-2.39,2.95-6.42,4.15-11.35,3.37a31.43,31.43,0,0,1-22.31-18.07Z" style="fill:#FF725E;opacity:0.30000000000000004"></path><path d="M364,370.8h0c1-1.95,1-4.58-.17-7.63-2.8-7.3-11.34-14.22-19.07-15.44-3.14-.5-5.67,0-7.37,1.31h0c3-2.79,7.25-2.91,12.68-.7a27.55,27.55,0,0,1,14,12.54C366,364.74,365.76,368.62,364,370.8Z" style="fill:#FF725E;opacity:0.1"></path><path d="M364,370.8h0c1-1.95,1-4.58-.17-7.63-2.8-7.3-11.34-14.22-19.07-15.44-3.14-.5-5.67,0-7.37,1.31h0c3-2.79,7.25-2.91,12.68-.7a27.55,27.55,0,0,1,14,12.54C366,364.74,365.76,368.62,364,370.8Z" style="fill:#FF725E;opacity:0.2"></path><path d="M337.12,346.89c.39.06.91.33.31.9a10.59,10.59,0,0,0-3.06,4.67c-1.09,3.92.79,10.31,9.82,18.23a26,26,0,0,1-9.51-9.1c-3.12-5.35-2.67-8.45-1.27-11.63C334.24,348.06,336.13,346.73,337.12,346.89Z" style="fill:#fff;opacity:0.6000000000000001"></path></g><path d="M355.54,309.05c9.42-15.93,24.4-41.59,32.44-46.36s23.31-2.39,24.19-5.4l26.1,21.14c-2.75,1.49,2.74,15.93-.26,24.79s-24.89,29.11-38.61,41.35c-6.78,6.06-31.87,27.51-34.95,29.23l-.25.14-.53.29h0a13.19,13.19,0,0,1-7.19.75c-8.83-1.39-18.57-9.29-21.77-17.63a12.07,12.07,0,0,1-.76-7.19h0l.18-.59c0-.08.05-.17.08-.26C335.25,345.93,350.91,316.88,355.54,309.05Z" style="fill:#FF725E"></path><path d="M355.54,309.05c9.42-15.93,24.4-41.59,32.44-46.36s23.31-2.39,24.19-5.4l26.1,21.14c-2.75,1.49,2.74,15.93-.26,24.79s-24.89,29.11-38.61,41.35c-6.78,6.06-31.87,27.51-34.95,29.23l-.25.14-.53.29h0a13.19,13.19,0,0,1-7.19.75c-8.83-1.39-18.57-9.29-21.77-17.63a12.07,12.07,0,0,1-.76-7.19h0l.18-.59c0-.08.05-.17.08-.26C335.25,345.93,350.91,316.88,355.54,309.05Z" style="fill:#fff;opacity:0.5"></path><path d="M438,303.22a20,20,0,0,1-2,4.2,22.7,22.7,0,0,1-11.31.74c-15.72-2.49-33.08-16.55-38.77-31.41a22.61,22.61,0,0,1-1.63-11.22,20.75,20.75,0,0,1,3.69-2.84c8-4.76,23.31-2.39,24.19-5.4l26.1,21.14C435.52,279.92,441,294.36,438,303.22Z" style="fill:#fff;opacity:0.30000000000000004"></path><path d="M438,278.61a1.33,1.33,0,0,0-.24.36,1.75,1.75,0,0,0-.11.24c-1.2,3.44,3,16,.32,24-.22.56-.49,1.17-.78,1.81-4.94,9.58-25,28.07-37.83,39.54-6.78,6.06-31.87,27.51-34.95,29.23l-.25.14-.53.29-.07,0a13.94,13.94,0,0,1-6.39.82l-.73-.1a27.06,27.06,0,0,1-10.79-4.58,36.29,36.29,0,0,1-7.06-6.47l-.08-.1c4.3,3.79,17.69,9.23,25.28,4.6s65.14-58.81,67-65,.39-24.86.39-24.86a26.25,26.25,0,0,0,6.14-.86l.9.72A1,1,0,0,0,438,278.61Z" style="fill:#FF725E;opacity:0.2"></path><path d="M401.2,343l-1.8,1.6c-6.78,6.06-31.87,27.51-34.95,29.23l-.25.14-.53.29h0a13.76,13.76,0,0,1-5.77.9h-.14l-.5-.05c-.26,0-.51-.05-.77-.1a26.57,26.57,0,0,1-9.84-3.94l-.18-.11-.69-.48-.59-.41c-.91-.75-1.78-1.46-2.6-2.07l-.05-.05C356.41,378,389.2,349.47,401.2,343Z" style="fill:#FF725E;opacity:0.30000000000000004"></path><path d="M414.08,245.21l-1.66,10.89h0A10.36,10.36,0,0,0,413,263a27.76,27.76,0,0,0,19.54,15.83,10.45,10.45,0,0,0,6.85-.88h0l10.36-3.85Z" style="fill:#FF725E"></path><path d="M414.08,245.21l-1.66,10.89h0A10.36,10.36,0,0,0,413,263a27.76,27.76,0,0,0,19.54,15.83,10.45,10.45,0,0,0,6.85-.88h0l10.36-3.85Z" style="fill:#fff;opacity:0.45"></path><path d="M439.38,277.94h0a5.71,5.71,0,0,1-.61.29l-.5.2h0a11.32,11.32,0,0,1-5.74.39c-.42-.06-.83-.15-1.25-.25.58,0,7.46-.25,7.88-2.18s-4.61-3.53-10.21-8.27l5.17-6.68,15.62,12.65Z" style="fill:#FF725E;opacity:0.2"></path><g style="opacity:0.4"><path d="M397.07,264.41c4.81-1,13.73,0,15.61-2.29S415.43,252,415.43,252l2.8,5.19a24.12,24.12,0,0,1-3.59,8.27c-2.53,3.3-10.86,2.44-16.91,3.19s-12.31,5.76-16.46,13c-3.54,6.21-42.29,69.09-45.68,77.6a20,20,0,0,1-.88-2,15.25,15.25,0,0,1-1-3.92c3.42-8.47,40-65.72,44.79-75C384.35,267.14,392.27,265.44,397.07,264.41Z" style="fill:#fff"></path><path d="M395.81,287.45a25.32,25.32,0,0,0-5,5.9,39.56,39.56,0,0,0,3.53,3,32.52,32.52,0,0,1,4.35-5.16C397.69,289.92,396.57,288.54,395.81,287.45Zm-12.76-5.2a31.49,31.49,0,0,0,6.59,9.93,33.35,33.35,0,0,1,5.42-6.05,40.72,40.72,0,0,1-5.33-11.76A31,31,0,0,0,383.05,282.25Z" style="fill:#fff"></path></g><g id="freepik--ring--inject-70"><path d="M416.37,239.6c-2.81,3.47-3.2,8.38-1.11,13.83a36.87,36.87,0,0,0,26.15,21.18c5.77.92,10.49-.49,13.3-3.95s3.2-8.38,1.1-13.83a36.82,36.82,0,0,0-26.14-21.18C423.9,234.73,419.17,236.14,416.37,239.6Zm14-.88c9.06,1.44,19.06,9.54,22.34,18.1s-1.39,14.33-10.45,12.9-19.05-9.54-22.34-18.1S421.28,237.28,430.33,238.72Z" style="fill:#FF725E"></path><path d="M416.37,239.6c-2.81,3.47-3.2,8.38-1.11,13.83a36.87,36.87,0,0,0,26.15,21.18c5.77.92,10.49-.49,13.3-3.95s3.2-8.38,1.1-13.83a36.82,36.82,0,0,0-26.14-21.18C423.9,234.74,419.17,236.14,416.37,239.6Zm14-.88c9.06,1.43,19.06,9.54,22.34,18.1s-1.39,14.33-10.45,12.9-19.06-9.54-22.34-18.1S421.28,237.28,430.33,238.72Z" style="fill:#fff;opacity:0.4"></path><ellipse cx="436.28" cy="254.22" rx="11.74" ry="20.33" transform="translate(-35.87 433.21) rotate(-50.99)" style="fill:#FF725E"></ellipse><ellipse cx="436.28" cy="254.22" rx="11.74" ry="20.33" transform="translate(-35.87 433.21) rotate(-50.99)" style="fill:#fff;opacity:0.2"></ellipse><ellipse cx="436.28" cy="254.22" rx="11.74" ry="20.33" transform="translate(-35.87 433.21) rotate(-50.99)" style="opacity:0.1"></ellipse><path d="M415.26,253.43c-1.52-4-1.72-7.62-.65-10.66-.42,1.4-1.29,5.5,1.85,11.51,4.13,7.91,13.43,15.77,23.7,18.44s15.67-3.29,16.75-7h0a10.83,10.83,0,0,1-2.22,4.92c-2.81,3.46-7.53,4.87-13.3,3.95a36.87,36.87,0,0,1-26.15-21.18Z" style="fill:#FF725E;opacity:0.1"></path><path d="M415.26,253.43c-1.52-4-1.72-7.62-.65-10.66-.42,1.4-1.29,5.5,1.85,11.51,4.13,7.91,13.43,15.77,23.7,18.44s15.67-3.29,16.75-7h0a10.83,10.83,0,0,1-2.22,4.92c-2.81,3.46-7.53,4.87-13.3,3.95a36.87,36.87,0,0,1-26.15-21.18Z" style="fill:#FF725E;opacity:0.30000000000000004"></path><path d="M452.88,265.76h0c1.14-2.28,1.16-5.36-.21-8.93-3.28-8.56-13.28-16.66-22.34-18.1-3.69-.58-6.65,0-8.64,1.53h0c3.57-3.27,8.5-3.4,14.86-.81a32.19,32.19,0,0,1,16.37,14.69C455.21,258.65,455,263.2,452.88,265.76Z" style="fill:#FF725E;opacity:0.1"></path><path d="M452.88,265.76h0c1.14-2.28,1.16-5.36-.21-8.93-3.28-8.56-13.28-16.66-22.34-18.1-3.69-.58-6.65,0-8.64,1.53h0c3.57-3.27,8.5-3.4,14.86-.81a32.19,32.19,0,0,1,16.37,14.69C455.21,258.65,455,263.2,452.88,265.76Z" style="fill:#FF725E;opacity:0.2"></path><path d="M421.41,237.74c.44.07,1.06.38.35,1a12.39,12.39,0,0,0-3.58,5.47c-1.28,4.59.92,12.09,11.51,21.37A30.65,30.65,0,0,1,418.54,255c-3.65-6.27-3.13-9.9-1.49-13.62C418,239.11,420.24,237.55,421.41,237.74Z" style="fill:#fff;opacity:0.6000000000000001"></path></g></g><path d="M432.27,239.11a130,130,0,0,1-6.34,21.53c-.51-.53-1-1.07-1.48-1.63a122.6,122.6,0,0,0,4.12-12.59c.68-2.54,1.3-5.11,1.82-7.71,4.07-19.88,3.49-41-2.72-60.33-.08-.27.21-.69.35-.31a107.21,107.21,0,0,1,6.65,38.72A120,120,0,0,1,432.27,239.11Z" style="fill:#455a64"></path><path d="M448.65,188.14A212.17,212.17,0,0,1,438,241.36q-2.43,7.26-5.33,14.31c-1.09,2.67-2.25,5.31-3.44,7.93-.5-.39-1-.79-1.46-1.22a222,222,0,0,0,8.59-21.82,224.48,224.48,0,0,0,6.27-22.64,227.29,227.29,0,0,0,4.58-69.4c0-.3.33-.52.38-.14A208,208,0,0,1,448.65,188.14Z" style="fill:#455a64"></path><path d="M411.55,198.5c7.83.89,21.29,7.37,21.81,20.53C424.55,220.55,421.45,208.1,411.55,198.5Z" style="fill:#37474f"></path><path d="M477.84,168.9c-10,.35-27.74,7.22-29.71,23.87C459.15,195.58,464.33,180.09,477.84,168.9Z" style="fill:#37474f"></path><path d="M464.15,217.74c-6.87-.87-19.7,1.85-22.88,13C448.46,233.85,453.71,223.86,464.15,217.74Z" style="fill:#37474f"></path><path d="M414,169.13c-1.76,3.3,2.94,4.85,5.41,5.31-11.2,1.54-7.13,11.7,2,5.76-3.63,9.17,8.77,9.89,7.09-1,8,3.83,13-4.35,2.43-5.6,9.37-8.28-2.94-10.45-6.56-2.85C422,168.15,416.6,166,414,169.13Z" style="fill:#FF725E"></path><path d="M426.11,173.87a3,3,0,0,0-1.39.13,3.11,3.11,0,0,0-1.33,1,1.52,1.52,0,0,0-.36,1.28c.25.93,1.16.94,1.91.71a5,5,0,0,0,1.45-.66,2.36,2.36,0,0,0,.94-1.26C427.37,174.32,426.78,174,426.11,173.87Z" style="fill:#fafafa"></path><path d="M449.1,135.16c3.63,1,1.54,5.46.19,7.58,8.77-7.13,13.41,2.79,2.84,5.39,9.18,3.62,1.23,13.16-5.59,4.47-2.68,8.46-12.05,6.5-5.75-2-12.45,1.18-5.62-9.29,2.4-6.74C442.92,140.33,445.08,134.94,449.1,135.16Z" style="fill:#FF725E"></path><path d="M444.29,147.24a3.09,3.09,0,0,1,1-.92A3.05,3.05,0,0,1,447,146a1.53,1.53,0,0,1,1.18.61c.51.82-.11,1.49-.79,1.88a5,5,0,0,1-1.47.61,2.38,2.38,0,0,1-1.56-.17A1.2,1.2,0,0,1,444.29,147.24Z" style="fill:#fafafa"></path></g></g><g id="freepik--Lines--inject-70"><path id="freepik--lines--inject-70" d="M445.31,315.44a23,23,0,0,0,3.64-6.86,24.29,24.29,0,0,0,.09-15.24,42.87,42.87,0,0,1-.05,7.52,33.39,33.39,0,0,1-1.53,7.22,28.34,28.34,0,0,1-8,12.33A18,18,0,0,0,445.31,315.44Zm11.48-27.81a57.55,57.55,0,0,1,.29,11.87,49.36,49.36,0,0,1-2.35,11.5,41.46,41.46,0,0,1-13.05,19.3,30.22,30.22,0,0,0,8.94-8,37.57,37.57,0,0,0,5.61-10.76A40.66,40.66,0,0,0,456.79,287.63Z" style="fill:#455a64"></path></g></svg>